<svg width="519" height="436" fill="none" xmlns="http://www.w3.org/2000/svg"><path d="M29.296 387.841c-.182-1.833-.963-3.258-2.341-4.273-1.38-1.015-3.25-1.523-5.614-1.523-1.606 0-2.962.228-4.068.682-1.106.44-1.955 1.053-2.546 1.841a4.431 4.431 0 0 0-.863 2.682c-.03.833.144 1.561.522 2.182.394.621.932 1.159 1.614 1.613.682.44 1.47.826 2.364 1.16.894.318 1.848.59 2.863.818l4.182 1c2.03.454 3.894 1.06 5.591 1.818 1.697.757 3.167 1.689 4.41 2.795a11.62 11.62 0 0 1 2.886 3.909c.696 1.5 1.053 3.22 1.068 5.16-.015 2.848-.743 5.318-2.182 7.409-1.424 2.075-3.485 3.689-6.182 4.841-2.682 1.136-5.917 1.704-9.704 1.704-3.758 0-7.03-.576-9.819-1.727-2.772-1.152-4.94-2.856-6.5-5.114-1.545-2.273-2.356-5.083-2.432-8.432h9.523c.106 1.561.553 2.864 1.341 3.909.803 1.031 1.871 1.811 3.205 2.341 1.348.516 2.87.773 4.568.773 1.667 0 3.114-.242 4.34-.727 1.243-.485 2.205-1.159 2.887-2.023.682-.864 1.023-1.856 1.023-2.977 0-1.046-.31-1.924-.932-2.637-.606-.712-1.5-1.318-2.682-1.818-1.167-.5-2.598-.954-4.295-1.363l-5.069-1.273c-3.924-.955-7.022-2.447-9.295-4.477-2.273-2.031-3.401-4.766-3.386-8.205-.015-2.818.735-5.28 2.25-7.386 1.53-2.106 3.629-3.75 6.295-4.932 2.667-1.182 5.697-1.773 9.091-1.773 3.455 0 6.47.591 9.046 1.773 2.59 1.182 4.606 2.826 6.045 4.932 1.44 2.106 2.182 4.545 2.227 7.318h-9.431Zm59.46 9.886c0 5.076-.962 9.394-2.887 12.955-1.909 3.56-4.515 6.28-7.818 8.159-3.288 1.864-6.985 2.795-11.09 2.795-4.137 0-7.85-.939-11.137-2.818-3.288-1.879-5.886-4.598-7.796-8.159-1.909-3.561-2.863-7.871-2.863-12.932 0-5.075.954-9.394 2.863-12.954 1.91-3.561 4.508-6.273 7.796-8.137 3.288-1.878 7-2.818 11.136-2.818 4.106 0 7.803.94 11.091 2.818 3.303 1.864 5.91 4.576 7.818 8.137 1.925 3.56 2.887 7.879 2.887 12.954Zm-9.978 0c0-3.288-.492-6.06-1.477-8.318-.97-2.257-2.34-3.97-4.114-5.136-1.772-1.167-3.848-1.75-6.227-1.75-2.379 0-4.454.583-6.227 1.75-1.773 1.166-3.152 2.879-4.136 5.136-.97 2.258-1.455 5.03-1.455 8.318 0 3.288.485 6.061 1.455 8.318.984 2.258 2.363 3.97 4.136 5.137 1.773 1.166 3.848 1.75 6.227 1.75 2.379 0 4.455-.584 6.228-1.75 1.772-1.167 3.143-2.879 4.113-5.137.985-2.257 1.477-5.03 1.477-8.318ZM96.045 421v-46.545h18.364c3.53 0 6.538.674 9.023 2.022 2.485 1.334 4.379 3.19 5.682 5.568 1.318 2.364 1.977 5.091 1.977 8.182s-.667 5.818-2 8.182c-1.333 2.364-3.265 4.205-5.796 5.523-2.515 1.318-5.56 1.977-9.136 1.977h-11.704v-7.886h10.113c1.894 0 3.455-.326 4.682-.978 1.242-.666 2.167-1.583 2.773-2.75.621-1.181.932-2.537.932-4.068 0-1.545-.311-2.894-.932-4.045-.606-1.167-1.531-2.068-2.773-2.705-1.242-.651-2.818-.977-4.727-.977h-6.637V421h-9.84Zm44.086 0h-10.546l16.068-46.545h12.682L174.381 421h-10.546l-11.659-35.909h-.364L140.131 421Zm-.659-18.295h24.909v7.681h-24.909v-7.681ZM211.295 421h-16.5v-46.545h16.637c4.682 0 8.712.931 12.091 2.795 3.379 1.848 5.977 4.508 7.795 7.977 1.834 3.47 2.75 7.621 2.75 12.455 0 4.848-.916 9.015-2.75 12.5-1.818 3.485-4.432 6.159-7.841 8.023-3.394 1.863-7.454 2.795-12.182 2.795Zm-6.659-8.432h6.25c2.909 0 5.356-.515 7.341-1.545 2-1.046 3.5-2.659 4.5-4.841 1.015-2.197 1.523-5.03 1.523-8.5 0-3.44-.508-6.25-1.523-8.432-1-2.182-2.492-3.788-4.477-4.818-1.985-1.03-4.432-1.546-7.341-1.546h-6.273v29.682ZM241.358 421v-46.545h31.364v8.113h-21.523v11.091h19.909v8.114h-19.909v11.113h21.613V421h-31.454Zm95.068-30.25h-9.954c-.182-1.288-.553-2.432-1.114-3.432a8.733 8.733 0 0 0-2.159-2.591 9.507 9.507 0 0 0-3.046-1.636c-1.136-.379-2.371-.568-3.704-.568-2.409 0-4.508.598-6.296 1.795-1.787 1.182-3.174 2.909-4.159 5.182-.985 2.258-1.477 5-1.477 8.227 0 3.318.492 6.106 1.477 8.364 1 2.257 2.394 3.962 4.182 5.114 1.788 1.151 3.856 1.727 6.205 1.727 1.318 0 2.538-.174 3.659-.523a9.592 9.592 0 0 0 3.022-1.523 8.744 8.744 0 0 0 2.182-2.477c.591-.97 1-2.076 1.228-3.318l9.954.045c-.257 2.137-.901 4.197-1.932 6.182-1.015 1.97-2.386 3.735-4.113 5.296-1.712 1.545-3.758 2.772-6.137 3.681-2.363.894-5.038 1.341-8.022 1.341-4.152 0-7.864-.939-11.137-2.818-3.257-1.879-5.833-4.598-7.727-8.159-1.879-3.561-2.818-7.871-2.818-12.932 0-5.075.954-9.394 2.863-12.954 1.91-3.561 4.5-6.273 7.773-8.137 3.273-1.878 6.955-2.818 11.046-2.818 2.697 0 5.197.379 7.5 1.137 2.318.757 4.371 1.863 6.159 3.318 1.788 1.439 3.242 3.204 4.363 5.295 1.137 2.091 1.864 4.485 2.182 7.182ZM350.631 421h-10.546l16.068-46.545h12.682L384.881 421h-10.546l-11.659-35.909h-.364L350.631 421Zm-.659-18.295h24.909v7.681h-24.909v-7.681ZM390.483 421v-46.545h18.636c3.425 0 6.281.507 8.569 1.522 2.287 1.015 4.007 2.425 5.159 4.228 1.151 1.787 1.727 3.848 1.727 6.181 0 1.819-.364 3.417-1.091 4.796a9.407 9.407 0 0 1-3 3.363c-1.258.864-2.697 1.478-4.318 1.841v.455c1.773.076 3.432.576 4.977 1.5 1.561.924 2.826 2.22 3.796 3.886.969 1.652 1.454 3.621 1.454 5.909 0 2.47-.614 4.675-1.841 6.614-1.212 1.924-3.007 3.447-5.386 4.568-2.379 1.121-5.311 1.682-8.796 1.682h-19.886Zm9.841-8.045h8.023c2.742 0 4.742-.523 6-1.569 1.257-1.06 1.886-2.469 1.886-4.227 0-1.288-.311-2.424-.932-3.409-.621-.985-1.507-1.758-2.659-2.318-1.136-.561-2.492-.841-4.068-.841h-8.25v12.364Zm0-19.023h7.295c1.349 0 2.546-.235 3.591-.705 1.061-.485 1.894-1.166 2.5-2.045.621-.879.932-1.932.932-3.159 0-1.682-.598-3.038-1.795-4.068-1.182-1.031-2.864-1.546-5.046-1.546h-7.477v11.523ZM432.795 421v-46.545h18.364c3.515 0 6.515.628 9 1.886 2.5 1.242 4.402 3.007 5.705 5.295 1.318 2.273 1.977 4.947 1.977 8.023 0 3.091-.667 5.75-2 7.977-1.333 2.212-3.265 3.909-5.796 5.091-2.515 1.182-5.56 1.773-9.136 1.773h-12.295v-7.909h10.704c1.879 0 3.44-.258 4.682-.773 1.242-.515 2.167-1.288 2.773-2.318.621-1.03.932-2.311.932-3.841 0-1.545-.311-2.848-.932-3.909-.606-1.061-1.538-1.864-2.796-2.409-1.242-.561-2.81-.841-4.704-.841h-6.637V421h-9.841Zm25.137-21.182L469.5 421h-10.864l-11.318-21.182h10.614ZM482.818 421h-10.545l16.068-46.545h12.682L517.068 421h-10.545l-11.659-35.909h-.364L482.818 421Zm-.659-18.295h24.909v7.681h-24.909v-7.681Z" fill="#FF914D"/><mask id="mask0_9_89" style="mask-type:luminance" maskUnits="userSpaceOnUse" x="74" y="0" width="350" height="350"><path d="M74 0h350v350H74V0Z" fill="#fff"/></mask><g mask="url('#mask0_9_89')"><mask id="mask1_9_89" style="mask-type:luminance" maskUnits="userSpaceOnUse" x="74" y="0" width="350" height="350"><path d="M249 0C152.352 0 74 78.348 74 175.003 74 271.652 152.352 350 249 350s175-78.348 175-174.997C424 78.348 345.648 0 249 0Z" fill="#fff"/></mask><g mask="url('#mask1_9_89')"><path d="M74 0h350v350H74V0Z" fill="#FFDE59"/></g><path d="m174.53 138.422 10.063-3.052c-4.073-12.479-21.652-19.87-21.652-19.87l-7.13 9.042c-2.547-2.927 0-11.203 0-11.203-16.427-6.875-30.562-3.313-30.562-3.313l-2.292 9.422-4.583-7.255c-8.531 1.401-16.427 11.203-16.427 11.203-10.063 17.068 2.291 38.203 2.291 38.203-2.927-37.182 20.25-40.24 35.276-36.672 14.896 3.563 14.896 18.719 14.896 18.719-1.656-6.24-10.312-14.391-19.229-14.261-8.911.125-11.713 15.917-11.713 15.917 9.552-4.078 17.828 1.781 17.828 1.781-14.261 1.146-14.771 7.261-14.771 7.261-4.714 21.901 33.489 20.375 33.489 20.375l1.912-16.302 7.13 16.302c22.667-2.547 22.667-32.349 22.667-32.349l-17.193-3.948ZM394.582 123.526s-7.896-9.807-16.427-11.208l-4.839 7.26-2.291-9.422s-14.266-3.692-30.693 3.308c0 0 2.547 8.406 0 11.208l-7.13-9.042s-17.573 7.386-21.646 19.865l10.057 3.057-17.192 3.948s0 29.797 22.797 32.344l7.13-16.297 1.911 16.297s38.459 1.531 33.62-20.375c0 0-.51-6.24-14.901-7.255 0 0 8.276-5.99 17.958-1.787 0 0-2.802-15.792-11.843-15.917-9.042-.125-17.704 8.021-19.36 14.261 0 0 0-15.281 15.026-18.719 15.026-3.562 38.459-.51 35.401 36.677.13 0 12.485-21.14 2.422-38.203Z" fill="#FF914D"/><path d="M301.238 165.292s-10.823 10.573-26.104 9.427c0 0 18.849-6.37 21.776-18.214 2.927-11.838-2.291-18.208 6.75-28.14 9.042-9.933 18.844-19.105 39.985-21.776 0 0-13.37-9.297-28.141-11.464 0 0-1.656 11.083 0 14.901 0 0-8.786-11.078-9.297-14.901 0 0-16.937 3.698-26.489 12.354 0 0 5.604 13.88 14.265 17.828 0 0-19.739-8.406-23.052-13.114 0 0-17.698 12.224-21.776 21.776 0 0-13.37-17.448-22.922-22.162 0 0-19.739 10.953-22.156 14.776-2.422 3.818 9.167-17.958 13.37-21.651 0 0-18.084-8.02-27.125-8.406 0 0-8.151 8.406-9.677 12.484 0 0-2.422-7.895-.891-14.01 0 0-22.667 3.948-24.703 10.568 0 0 48.771 7.26 45.078 51.578 0 0 13.37 14.26 20.5 17.443 0 0-14.135-.761-24.958-8.401 0 0-10.568 7.51-10.823 11.968-.255 4.839 2.547 15.282 6.75 16.683 0 0 .255-10.954 3.692-12.865 0 0-1.02 15.156 21.136 22.797 16.937 5.859 16.432 20.63 15.411 23.432 0 0-9.932-10.187-16.172-11.588-6.239-1.401-11.718-3.823-15.916-9.427 0 0 1.271 12.354 7.255 23.942 5.984 11.589 25.599 45.844 27 51.828 0 0 13.37 7.516 31.198 0 0 0 11.203-26.104 22.792-42.406 11.718-16.172 8.916-29.031 8.406-33.364 0 0-7.896 9.682-15.917 11.843-7.896 2.167-14.39 8.282-14.901 9.683 0 0-1.015-11.589 8.406-19.87 9.422-8.276 21.646-5.349 26.615-23.938 0 0 5.094 7.511 3.568 10.948-1.532 3.443 8.021-9.677 5.729-20.5.255.38-2.167-8.021-8.662-10.062Z" fill="#FF914D"/></g></svg>