<svg width="970" height="350" fill="none" xmlns="http://www.w3.org/2000/svg"><path d="M475.591 77.682c-.364-3.667-1.924-6.515-4.682-8.546-2.757-2.03-6.5-3.045-11.227-3.045-3.212 0-5.924.455-8.137 1.364-2.212.878-3.909 2.106-5.09 3.681-1.152 1.576-1.728 3.364-1.728 5.364-.06 1.667.288 3.121 1.046 4.364.788 1.242 1.863 2.318 3.227 3.227 1.364.879 2.939 1.651 4.727 2.318a48.99 48.99 0 0 0 5.728 1.636l8.363 2c4.061.91 7.788 2.122 11.182 3.637 3.394 1.515 6.333 3.379 8.818 5.59a23.243 23.243 0 0 1 5.773 7.819c1.394 3 2.106 6.439 2.136 10.318-.03 5.697-1.485 10.636-4.363 14.818-2.849 4.152-6.97 7.379-12.364 9.682-5.364 2.273-11.833 3.409-19.409 3.409-7.515 0-14.061-1.151-19.636-3.454-5.546-2.303-9.879-5.712-13-10.228-3.091-4.545-4.713-10.166-4.864-16.863h19.045c.212 3.121 1.106 5.727 2.682 7.818 1.606 2.061 3.743 3.621 6.409 4.682 2.697 1.03 5.743 1.545 9.137 1.545 3.333 0 6.227-.485 8.681-1.454 2.485-.97 4.41-2.319 5.773-4.046 1.364-1.727 2.046-3.712 2.046-5.954 0-2.091-.622-3.849-1.864-5.273-1.212-1.424-3-2.636-5.364-3.636-2.333-1-5.197-1.91-8.591-2.728l-10.136-2.545c-7.848-1.909-14.045-4.894-18.591-8.955-4.545-4.06-6.803-9.53-6.773-16.409-.03-5.636 1.47-10.56 4.5-14.773 3.061-4.212 7.258-7.5 12.591-9.863 5.334-2.364 11.394-3.546 18.182-3.546 6.909 0 12.94 1.182 18.091 3.546 5.182 2.363 9.212 5.651 12.091 9.863 2.879 4.213 4.364 9.091 4.455 14.637h-18.864Zm118.92 19.772c0 10.152-1.924 18.788-5.772 25.91-3.819 7.121-9.031 12.56-15.637 16.318-6.575 3.727-13.969 5.591-22.182 5.591-8.272 0-15.697-1.879-22.272-5.637-6.576-3.757-11.773-9.197-15.591-16.318-3.818-7.121-5.727-15.742-5.727-25.864 0-10.151 1.909-18.787 5.727-25.908 3.818-7.122 9.015-12.546 15.591-16.273 6.575-3.758 14-5.637 22.272-5.637 8.213 0 15.607 1.88 22.182 5.637 6.606 3.727 11.818 9.151 15.637 16.273 3.848 7.12 5.772 15.757 5.772 25.908Zm-19.954 0c0-6.575-.985-12.12-2.955-16.636-1.939-4.515-4.682-7.94-8.227-10.272-3.545-2.334-7.697-3.5-12.455-3.5-4.757 0-8.909 1.166-12.454 3.5-3.546 2.333-6.303 5.757-8.273 10.272-1.939 4.515-2.909 10.06-2.909 16.636 0 6.576.97 12.122 2.909 16.637 1.97 4.515 4.727 7.939 8.273 10.273 3.545 2.333 7.697 3.5 12.454 3.5 4.758 0 8.91-1.167 12.455-3.5 3.545-2.334 6.288-5.758 8.227-10.273 1.97-4.515 2.955-10.061 2.955-16.636ZM609.091 144V50.91h36.727c7.061 0 13.076 1.348 18.046 4.045 4.969 2.666 8.757 6.378 11.363 11.136 2.637 4.727 3.955 10.182 3.955 16.364 0 6.181-1.334 11.636-4 16.363-2.667 4.727-6.53 8.409-11.591 11.046-5.03 2.636-11.121 3.954-18.273 3.954h-23.409V98.046h20.227c3.788 0 6.909-.652 9.364-1.955 2.485-1.333 4.333-3.167 5.545-5.5 1.243-2.364 1.864-5.076 1.864-8.136 0-3.091-.621-5.788-1.864-8.091-1.212-2.334-3.06-4.137-5.545-5.41-2.485-1.302-5.636-1.954-9.455-1.954h-13.272v77h-19.682Zm88.17 0H676.17l32.137-93.09h25.363L765.761 144H744.67l-23.318-71.818h-.727L697.261 144Zm-1.318-36.591h49.818v15.364h-49.818v-15.364ZM839.591 144h-33V50.91h33.273c9.363 0 17.424 1.863 24.181 5.59 6.758 3.697 11.955 9.015 15.591 15.954 3.667 6.94 5.5 15.243 5.5 24.91 0 9.697-1.833 18.03-5.5 25-3.636 6.969-8.863 12.318-15.681 16.045-6.788 3.727-14.91 5.591-24.364 5.591Zm-13.318-16.864h12.5c5.818 0 10.712-1.03 14.682-3.091 4-2.09 7-5.318 9-9.681 2.03-4.394 3.045-10.061 3.045-17 0-6.88-1.015-12.5-3.045-16.864-2-4.364-4.985-7.576-8.955-9.636-3.97-2.061-8.864-3.091-14.682-3.091h-12.545v59.363ZM899.716 144V50.91h62.727v16.226h-43.045v22.182h39.818v16.227h-39.818v22.228h43.227V144h-62.909Zm-392.489 94.5h-19.909c-.363-2.576-1.106-4.864-2.227-6.864a17.462 17.462 0 0 0-4.318-5.181c-1.758-1.425-3.788-2.516-6.091-3.273-2.273-.758-4.743-1.137-7.409-1.137-4.818 0-9.015 1.197-12.591 3.591-3.576 2.364-6.349 5.819-8.318 10.364-1.97 4.515-2.955 10-2.955 16.455 0 6.636.985 12.212 2.955 16.727 2 4.515 4.788 7.924 8.363 10.227 3.576 2.303 7.712 3.455 12.409 3.455 2.637 0 5.076-.349 7.319-1.046 2.272-.697 4.287-1.712 6.045-3.045a17.55 17.55 0 0 0 4.364-4.955c1.181-1.939 2-4.151 2.454-6.636l19.909.091c-.515 4.272-1.803 8.394-3.863 12.363-2.031 3.94-4.773 7.47-8.228 10.591-3.424 3.091-7.515 5.546-12.272 7.364-4.728 1.788-10.076 2.682-16.046 2.682-8.303 0-15.727-1.879-22.273-5.637-6.515-3.757-11.666-9.197-15.454-16.318-3.758-7.121-5.636-15.742-5.636-25.863 0-10.152 1.909-18.788 5.727-25.91 3.818-7.121 9-12.545 15.545-16.272 6.546-3.758 13.909-5.637 22.091-5.637 5.394 0 10.394.758 15 2.273 4.637 1.515 8.743 3.727 12.318 6.636 3.576 2.879 6.485 6.41 8.728 10.591 2.272 4.182 3.727 8.97 4.363 14.364Zm28.409 60.5h-21.091l32.137-93.091h25.363L604.136 299h-21.091l-23.318-71.818H559L535.636 299Zm-1.318-36.591h49.818v15.364h-49.818v-15.364ZM615.341 299v-93.091h37.273c6.848 0 12.56 1.015 17.136 3.046 4.576 2.03 8.015 4.848 10.318 8.454 2.303 3.576 3.455 7.697 3.455 12.364 0 3.636-.728 6.833-2.182 9.591a18.844 18.844 0 0 1-6 6.727c-2.515 1.727-5.394 2.954-8.636 3.682v.909c3.545.151 6.863 1.151 9.954 3 3.121 1.848 5.652 4.439 7.591 7.773 1.939 3.303 2.909 7.242 2.909 11.818 0 4.939-1.227 9.348-3.682 13.227-2.424 3.848-6.015 6.894-10.772 9.136-4.758 2.243-10.622 3.364-17.591 3.364h-39.773Zm19.682-16.091h16.045c5.485 0 9.485-1.045 12-3.136 2.515-2.121 3.773-4.94 3.773-8.455 0-2.576-.621-4.848-1.864-6.818-1.242-1.97-3.015-3.515-5.318-4.636-2.273-1.122-4.985-1.682-8.136-1.682h-16.5v24.727Zm0-38.045h14.591c2.697 0 5.091-.47 7.181-1.409 2.122-.97 3.788-2.334 5-4.091 1.243-1.758 1.864-3.864 1.864-6.319 0-3.363-1.197-6.075-3.591-8.136-2.363-2.061-5.727-3.091-10.091-3.091h-14.954v23.046ZM699.966 299v-93.091h36.727c7.03 0 13.03 1.258 18 3.773 5 2.485 8.803 6.015 11.409 10.591 2.637 4.545 3.955 9.894 3.955 16.045 0 6.182-1.334 11.5-4 15.955-2.667 4.424-6.53 7.818-11.591 10.182-5.03 2.363-11.121 3.545-18.273 3.545h-24.591v-15.818h21.409c3.758 0 6.879-.515 9.364-1.546 2.485-1.03 4.333-2.575 5.545-4.636 1.243-2.061 1.864-4.621 1.864-7.682 0-3.091-.621-5.697-1.864-7.818-1.212-2.121-3.075-3.727-5.59-4.818-2.485-1.121-5.622-1.682-9.41-1.682h-13.272v77h-19.682Zm50.273-42.364L773.375 299h-21.727l-22.637-42.364h21.228ZM800.011 299H778.92l32.137-93.091h25.363L868.511 299H847.42l-23.318-71.818h-.727L800.011 299Zm-1.318-36.591h49.818v15.364h-49.818v-15.364Z" fill="#FF914D"/><mask id="mask0_11_15" style="mask-type:luminance" maskUnits="userSpaceOnUse" x="0" y="0" width="350" height="350"><path d="M0 0h350v350H0V0Z" fill="#fff"/></mask><g mask="url('#mask0_11_15')"><mask id="mask1_11_15" style="mask-type:luminance" maskUnits="userSpaceOnUse" x="0" y="0" width="350" height="350"><path d="M175 0C78.353 0 0 78.348 0 175.003 0 271.652 78.353 350 175 350c96.648 0 175-78.348 175-174.997C350 78.348 271.648 0 175 0Z" fill="#fff"/></mask><g mask="url('#mask1_11_15')"><path d="M0 0h350v350H0V0Z" fill="#FFDE59"/></g><path d="m100.53 138.422 10.063-3.052c-4.073-12.479-21.651-19.87-21.651-19.87l-7.13 9.042c-2.548-2.927 0-11.204 0-11.204-16.428-6.875-30.563-3.312-30.563-3.312l-2.292 9.422-4.583-7.255c-8.532 1.401-16.427 11.203-16.427 11.203-10.063 17.067 2.291 38.203 2.291 38.203-2.927-37.182 20.25-40.24 35.276-36.672 14.896 3.563 14.896 18.719 14.896 18.719-1.656-6.24-10.312-14.391-19.229-14.261-8.911.125-11.713 15.917-11.713 15.917 9.552-4.078 17.828 1.781 17.828 1.781-14.26 1.146-14.771 7.261-14.771 7.261-4.714 21.901 33.49 20.375 33.49 20.375l1.91-16.302 7.131 16.302c22.667-2.547 22.667-32.349 22.667-32.349l-17.193-3.948ZM320.582 123.526s-7.896-9.807-16.427-11.208l-4.839 7.26-2.291-9.422s-14.266-3.693-30.693 3.307c0 0 2.547 8.407 0 11.209l-7.13-9.042s-17.573 7.386-21.646 19.865l10.057 3.057-17.192 3.948s0 29.797 22.797 32.344l7.13-16.297 1.911 16.297s38.459 1.531 33.62-20.375c0 0-.51-6.24-14.901-7.256 0 0 8.276-5.989 17.958-1.786 0 0-2.802-15.792-11.843-15.917-9.042-.125-17.704 8.021-19.36 14.261 0 0 0-15.281 15.026-18.719 15.026-3.562 38.459-.51 35.401 36.677.13 0 12.485-21.141 2.422-38.203Z" fill="#FF914D"/><path d="M227.238 165.292s-10.823 10.573-26.104 9.427c0 0 18.849-6.37 21.776-18.214 2.927-11.838-2.291-18.208 6.75-28.14 9.042-9.933 18.844-19.105 39.985-21.776 0 0-13.37-9.297-28.141-11.464 0 0-1.656 11.083 0 14.901 0 0-8.786-11.078-9.297-14.901 0 0-16.937 3.698-26.489 12.354 0 0 5.604 13.88 14.265 17.828 0 0-19.739-8.406-23.052-13.114 0 0-17.698 12.224-21.776 21.776 0 0-13.37-17.448-22.922-22.162 0 0-19.739 10.953-22.156 14.776-2.422 3.818 9.167-17.958 13.37-21.651 0 0-18.084-8.02-27.125-8.406 0 0-8.151 8.406-9.677 12.484 0 0-2.422-7.895-.891-14.01 0 0-22.667 3.948-24.703 10.568 0 0 48.771 7.26 45.078 51.578 0 0 13.37 14.26 20.5 17.443 0 0-14.135-.761-24.958-8.401 0 0-10.568 7.51-10.823 11.968-.255 4.839 2.547 15.282 6.75 16.683 0 0 .255-10.954 3.692-12.865 0 0-1.02 15.156 21.136 22.797 16.937 5.859 16.432 20.63 15.411 23.432 0 0-9.932-10.187-16.172-11.588-6.239-1.401-11.718-3.823-15.916-9.427 0 0 1.271 12.354 7.255 23.942 5.984 11.589 25.599 45.844 27 51.828 0 0 13.37 7.516 31.198 0 0 0 11.203-26.104 22.792-42.406 11.718-16.172 8.916-29.031 8.406-33.364 0 0-7.896 9.682-15.917 11.843-7.896 2.167-14.39 8.282-14.901 9.683 0 0-1.015-11.589 8.406-19.87 9.422-8.276 21.646-5.349 26.615-23.938 0 0 5.094 7.511 3.568 10.948-1.532 3.443 8.021-9.677 5.729-20.5.255.38-2.167-8.021-8.662-10.062Z" fill="#FF914D"/></g></svg>