<svg width="350" height="350" viewBox="0 0 350 350" fill="none" xmlns="http://www.w3.org/2000/svg">
<mask id="mask0_13_15" style="mask-type:luminance" maskUnits="userSpaceOnUse" x="0" y="0" width="350" height="350">
<path d="M0 0H350V350H0V0Z" fill="white"/>
</mask>
<g mask="url(#mask0_13_15)">
<mask id="mask1_13_15" style="mask-type:luminance" maskUnits="userSpaceOnUse" x="0" y="0" width="350" height="350">
<path d="M175 0C78.3525 0 0 78.3483 0 175.003C0 271.652 78.3525 350 175 350C271.648 350 350 271.652 350 175.003C350 78.3483 271.648 0 175 0Z" fill="white"/>
</mask>
<g mask="url(#mask1_13_15)">
<path d="M0 0H350V350H0V0Z" fill="#FFDE59"/>
</g>
<path d="M100.53 138.422L110.593 135.37C106.52 122.891 88.9415 115.5 88.9415 115.5L81.8113 124.542C79.2644 121.615 81.8113 113.338 81.8113 113.338C65.3842 106.463 51.2488 110.026 51.2488 110.026L48.9571 119.448L44.3738 112.193C35.8425 113.594 27.9467 123.396 27.9467 123.396C17.8842 140.463 30.2384 161.599 30.2384 161.599C27.3113 124.417 50.4884 121.359 65.5144 124.927C80.4102 128.49 80.4102 143.646 80.4102 143.646C78.754 137.406 70.0977 129.255 61.1811 129.385C52.2696 129.51 49.4675 145.302 49.4675 145.302C59.0196 141.224 67.2957 147.083 67.2957 147.083C53.0352 148.229 52.5248 154.344 52.5248 154.344C47.8113 176.245 86.0144 174.719 86.0144 174.719L87.9259 158.417L95.0561 174.719C117.723 172.172 117.723 142.37 117.723 142.37L100.53 138.422Z" fill="#FF914D"/>
<path d="M320.582 123.526C320.582 123.526 312.686 113.719 304.155 112.318L299.316 119.578L297.025 110.156C297.025 110.156 282.759 106.463 266.332 113.463C266.332 113.463 268.879 121.87 266.332 124.672L259.202 115.63C259.202 115.63 241.629 123.016 237.556 135.495L247.613 138.552L230.421 142.5C230.421 142.5 230.421 172.297 253.218 174.844L260.348 158.547L262.259 174.844C262.259 174.844 300.718 176.375 295.879 154.469C295.879 154.469 295.369 148.229 280.978 147.213C280.978 147.213 289.254 141.224 298.936 145.427C298.936 145.427 296.134 129.635 287.093 129.51C278.051 129.385 269.389 137.531 267.733 143.771C267.733 143.771 267.733 128.49 282.759 125.052C297.785 121.49 321.218 124.542 318.16 161.729C318.29 161.729 330.645 140.588 320.582 123.526Z" fill="#FF914D"/>
<path d="M227.238 165.292C227.238 165.292 216.415 175.865 201.134 174.719C201.134 174.719 219.983 168.349 222.91 156.505C225.837 144.667 220.619 138.297 229.66 128.365C238.702 118.432 248.504 109.26 269.645 106.589C269.645 106.589 256.275 97.2917 241.504 95.125C241.504 95.125 239.848 106.208 241.504 110.026C241.504 110.026 232.718 98.9479 232.207 95.125C232.207 95.125 215.27 98.8229 205.718 107.479C205.718 107.479 211.322 121.359 219.983 125.307C219.983 125.307 200.244 116.901 196.931 112.193C196.931 112.193 179.233 124.417 175.155 133.969C175.155 133.969 161.785 116.521 152.233 111.807C152.233 111.807 132.494 122.76 130.077 126.583C127.655 130.401 139.244 108.625 143.447 104.932C143.447 104.932 125.363 96.9115 116.322 96.526C116.322 96.526 108.171 104.932 106.645 109.01C106.645 109.01 104.223 101.115 105.754 95C105.754 95 83.0874 98.9479 81.0509 105.568C81.0509 105.568 129.822 112.828 126.129 157.146C126.129 157.146 139.499 171.406 146.629 174.589C146.629 174.589 132.494 173.828 121.671 166.188C121.671 166.188 111.103 173.698 110.848 178.156C110.593 182.995 113.395 193.438 117.598 194.839C117.598 194.839 117.853 183.885 121.29 181.974C121.29 181.974 120.27 197.13 142.426 204.771C159.363 210.63 158.858 225.401 157.837 228.203C157.837 228.203 147.905 218.016 141.665 216.615C135.426 215.214 129.947 212.792 125.749 207.188C125.749 207.188 127.02 219.542 133.004 231.13C138.988 242.719 158.603 276.974 160.004 282.958C160.004 282.958 173.374 290.474 191.202 282.958C191.202 282.958 202.405 256.854 213.994 240.552C225.712 224.38 222.91 211.521 222.4 207.188C222.4 207.188 214.504 216.87 206.483 219.031C198.587 221.198 192.093 227.313 191.582 228.714C191.582 228.714 190.567 217.125 199.988 208.844C209.41 200.568 221.634 203.495 226.603 184.906C226.603 184.906 231.697 192.417 230.171 195.854C228.639 199.297 238.192 186.177 235.9 175.354C236.155 175.734 233.733 167.333 227.238 165.292Z" fill="#FF914D"/>
</g>
</svg>
