<svg width="519" height="436" viewBox="0 0 519 436" fill="none" xmlns="http://www.w3.org/2000/svg">
<path d="M29.2955 387.841C29.1136 386.008 28.3333 384.583 26.9545 383.568C25.5758 382.553 23.7045 382.045 21.3409 382.045C19.7348 382.045 18.3788 382.273 17.2727 382.727C16.1667 383.167 15.3182 383.78 14.7273 384.568C14.1515 385.356 13.8636 386.25 13.8636 387.25C13.8333 388.083 14.0076 388.811 14.3864 389.432C14.7803 390.053 15.3182 390.591 16 391.045C16.6818 391.485 17.4697 391.871 18.3636 392.205C19.2576 392.523 20.2121 392.795 21.2273 393.023L25.4091 394.023C27.4394 394.477 29.303 395.083 31 395.841C32.697 396.598 34.1667 397.53 35.4091 398.636C36.6515 399.742 37.6136 401.045 38.2955 402.545C38.9924 404.045 39.3485 405.765 39.3636 407.705C39.3485 410.553 38.6212 413.023 37.1818 415.114C35.7576 417.189 33.697 418.803 31 419.955C28.3182 421.091 25.0833 421.659 21.2955 421.659C17.5379 421.659 14.2652 421.083 11.4773 419.932C8.70455 418.78 6.53788 417.076 4.97727 414.818C3.43182 412.545 2.62121 409.735 2.54545 406.386H12.0682C12.1742 407.947 12.6212 409.25 13.4091 410.295C14.2121 411.326 15.2803 412.106 16.6136 412.636C17.9621 413.152 19.4848 413.409 21.1818 413.409C22.8485 413.409 24.2955 413.167 25.5227 412.682C26.7652 412.197 27.7273 411.523 28.4091 410.659C29.0909 409.795 29.4318 408.803 29.4318 407.682C29.4318 406.636 29.1212 405.758 28.5 405.045C27.8939 404.333 27 403.727 25.8182 403.227C24.6515 402.727 23.2197 402.273 21.5227 401.864L16.4545 400.591C12.5303 399.636 9.43182 398.144 7.15909 396.114C4.88636 394.083 3.75758 391.348 3.77273 387.909C3.75758 385.091 4.50758 382.629 6.02273 380.523C7.55303 378.417 9.65152 376.773 12.3182 375.591C14.9848 374.409 18.0152 373.818 21.4091 373.818C24.8636 373.818 27.8788 374.409 30.4545 375.591C33.0455 376.773 35.0606 378.417 36.5 380.523C37.9394 382.629 38.6818 385.068 38.7273 387.841H29.2955ZM88.7557 397.727C88.7557 402.803 87.7936 407.121 85.8693 410.682C83.9602 414.242 81.3542 416.962 78.0511 418.841C74.7633 420.705 71.0663 421.636 66.9602 421.636C62.8239 421.636 59.1117 420.697 55.8239 418.818C52.536 416.939 49.9375 414.22 48.0284 410.659C46.1193 407.098 45.1648 402.788 45.1648 397.727C45.1648 392.652 46.1193 388.333 48.0284 384.773C49.9375 381.212 52.536 378.5 55.8239 376.636C59.1117 374.758 62.8239 373.818 66.9602 373.818C71.0663 373.818 74.7633 374.758 78.0511 376.636C81.3542 378.5 83.9602 381.212 85.8693 384.773C87.7936 388.333 88.7557 392.652 88.7557 397.727ZM78.7784 397.727C78.7784 394.439 78.286 391.667 77.3011 389.409C76.3314 387.152 74.9602 385.439 73.1875 384.273C71.4148 383.106 69.339 382.523 66.9602 382.523C64.5814 382.523 62.5057 383.106 60.733 384.273C58.9602 385.439 57.5814 387.152 56.5966 389.409C55.6269 391.667 55.142 394.439 55.142 397.727C55.142 401.015 55.6269 403.788 56.5966 406.045C57.5814 408.303 58.9602 410.015 60.733 411.182C62.5057 412.348 64.5814 412.932 66.9602 412.932C69.339 412.932 71.4148 412.348 73.1875 411.182C74.9602 410.015 76.3314 408.303 77.3011 406.045C78.286 403.788 78.7784 401.015 78.7784 397.727ZM96.0455 421V374.455H114.409C117.939 374.455 120.947 375.129 123.432 376.477C125.917 377.811 127.811 379.667 129.114 382.045C130.432 384.409 131.091 387.136 131.091 390.227C131.091 393.318 130.424 396.045 129.091 398.409C127.758 400.773 125.826 402.614 123.295 403.932C120.78 405.25 117.735 405.909 114.159 405.909H102.455V398.023H112.568C114.462 398.023 116.023 397.697 117.25 397.045C118.492 396.379 119.417 395.462 120.023 394.295C120.644 393.114 120.955 391.758 120.955 390.227C120.955 388.682 120.644 387.333 120.023 386.182C119.417 385.015 118.492 384.114 117.25 383.477C116.008 382.826 114.432 382.5 112.523 382.5H105.886V421H96.0455ZM140.131 421H129.585L145.653 374.455H158.335L174.381 421H163.835L152.176 385.091H151.812L140.131 421ZM139.472 402.705H164.381V410.386H139.472V402.705ZM211.295 421H194.795V374.455H211.432C216.114 374.455 220.144 375.386 223.523 377.25C226.902 379.098 229.5 381.758 231.318 385.227C233.152 388.697 234.068 392.848 234.068 397.682C234.068 402.53 233.152 406.697 231.318 410.182C229.5 413.667 226.886 416.341 223.477 418.205C220.083 420.068 216.023 421 211.295 421ZM204.636 412.568H210.886C213.795 412.568 216.242 412.053 218.227 411.023C220.227 409.977 221.727 408.364 222.727 406.182C223.742 403.985 224.25 401.152 224.25 397.682C224.25 394.242 223.742 391.432 222.727 389.25C221.727 387.068 220.235 385.462 218.25 384.432C216.265 383.402 213.818 382.886 210.909 382.886H204.636V412.568ZM241.358 421V374.455H272.722V382.568H251.199V393.659H271.108V401.773H251.199V412.886H272.812V421H241.358ZM336.426 390.75H326.472C326.29 389.462 325.919 388.318 325.358 387.318C324.797 386.303 324.078 385.439 323.199 384.727C322.32 384.015 321.305 383.47 320.153 383.091C319.017 382.712 317.782 382.523 316.449 382.523C314.04 382.523 311.941 383.121 310.153 384.318C308.366 385.5 306.979 387.227 305.994 389.5C305.009 391.758 304.517 394.5 304.517 397.727C304.517 401.045 305.009 403.833 305.994 406.091C306.994 408.348 308.388 410.053 310.176 411.205C311.964 412.356 314.032 412.932 316.381 412.932C317.699 412.932 318.919 412.758 320.04 412.409C321.176 412.061 322.184 411.553 323.062 410.886C323.941 410.205 324.669 409.379 325.244 408.409C325.835 407.439 326.244 406.333 326.472 405.091L336.426 405.136C336.169 407.273 335.525 409.333 334.494 411.318C333.479 413.288 332.108 415.053 330.381 416.614C328.669 418.159 326.623 419.386 324.244 420.295C321.881 421.189 319.206 421.636 316.222 421.636C312.07 421.636 308.358 420.697 305.085 418.818C301.828 416.939 299.252 414.22 297.358 410.659C295.479 407.098 294.54 402.788 294.54 397.727C294.54 392.652 295.494 388.333 297.403 384.773C299.313 381.212 301.903 378.5 305.176 376.636C308.449 374.758 312.131 373.818 316.222 373.818C318.919 373.818 321.419 374.197 323.722 374.955C326.04 375.712 328.093 376.818 329.881 378.273C331.669 379.712 333.123 381.477 334.244 383.568C335.381 385.659 336.108 388.053 336.426 390.75ZM350.631 421H340.085L356.153 374.455H368.835L384.881 421H374.335L362.676 385.091H362.312L350.631 421ZM349.972 402.705H374.881V410.386H349.972V402.705ZM390.483 421V374.455H409.119C412.544 374.455 415.4 374.962 417.688 375.977C419.975 376.992 421.695 378.402 422.847 380.205C423.998 381.992 424.574 384.053 424.574 386.386C424.574 388.205 424.21 389.803 423.483 391.182C422.756 392.545 421.756 393.667 420.483 394.545C419.225 395.409 417.786 396.023 416.165 396.386V396.841C417.938 396.917 419.597 397.417 421.142 398.341C422.703 399.265 423.968 400.561 424.938 402.227C425.907 403.879 426.392 405.848 426.392 408.136C426.392 410.606 425.778 412.811 424.551 414.75C423.339 416.674 421.544 418.197 419.165 419.318C416.786 420.439 413.854 421 410.369 421H390.483ZM400.324 412.955H408.347C411.089 412.955 413.089 412.432 414.347 411.386C415.604 410.326 416.233 408.917 416.233 407.159C416.233 405.871 415.922 404.735 415.301 403.75C414.68 402.765 413.794 401.992 412.642 401.432C411.506 400.871 410.15 400.591 408.574 400.591H400.324V412.955ZM400.324 393.932H407.619C408.968 393.932 410.165 393.697 411.21 393.227C412.271 392.742 413.104 392.061 413.71 391.182C414.331 390.303 414.642 389.25 414.642 388.023C414.642 386.341 414.044 384.985 412.847 383.955C411.665 382.924 409.983 382.409 407.801 382.409H400.324V393.932ZM432.795 421V374.455H451.159C454.674 374.455 457.674 375.083 460.159 376.341C462.659 377.583 464.561 379.348 465.864 381.636C467.182 383.909 467.841 386.583 467.841 389.659C467.841 392.75 467.174 395.409 465.841 397.636C464.508 399.848 462.576 401.545 460.045 402.727C457.53 403.909 454.485 404.5 450.909 404.5H438.614V396.591H449.318C451.197 396.591 452.758 396.333 454 395.818C455.242 395.303 456.167 394.53 456.773 393.5C457.394 392.47 457.705 391.189 457.705 389.659C457.705 388.114 457.394 386.811 456.773 385.75C456.167 384.689 455.235 383.886 453.977 383.341C452.735 382.78 451.167 382.5 449.273 382.5H442.636V421H432.795ZM457.932 399.818L469.5 421H458.636L447.318 399.818H457.932ZM482.818 421H472.273L488.341 374.455H501.023L517.068 421H506.523L494.864 385.091H494.5L482.818 421ZM482.159 402.705H507.068V410.386H482.159V402.705Z" fill="#FF914D"/>
<mask id="mask0_9_89" style="mask-type:luminance" maskUnits="userSpaceOnUse" x="74" y="0" width="350" height="350">
<path d="M74 0H424V350H74V0Z" fill="white"/>
</mask>
<g mask="url(#mask0_9_89)">
<mask id="mask1_9_89" style="mask-type:luminance" maskUnits="userSpaceOnUse" x="74" y="0" width="350" height="350">
<path d="M249 0C152.352 0 74 78.3483 74 175.003C74 271.652 152.352 350 249 350C345.648 350 424 271.652 424 175.003C424 78.3483 345.648 0 249 0Z" fill="white"/>
</mask>
<g mask="url(#mask1_9_89)">
<path d="M74 0H424V350H74V0Z" fill="#FFDE59"/>
</g>
<path d="M174.53 138.422L184.593 135.37C180.52 122.891 162.941 115.5 162.941 115.5L155.811 124.542C153.264 121.615 155.811 113.339 155.811 113.339C139.384 106.464 125.249 110.026 125.249 110.026L122.957 119.448L118.374 112.193C109.843 113.594 101.947 123.396 101.947 123.396C91.8842 140.464 104.238 161.599 104.238 161.599C101.311 124.417 124.488 121.359 139.514 124.927C154.41 128.49 154.41 143.646 154.41 143.646C152.754 137.406 144.098 129.255 135.181 129.385C126.27 129.51 123.468 145.302 123.468 145.302C133.02 141.224 141.296 147.083 141.296 147.083C127.035 148.229 126.525 154.344 126.525 154.344C121.811 176.245 160.014 174.719 160.014 174.719L161.926 158.417L169.056 174.719C191.723 172.172 191.723 142.37 191.723 142.37L174.53 138.422Z" fill="#FF914D"/>
<path d="M394.582 123.526C394.582 123.526 386.686 113.719 378.155 112.318L373.316 119.578L371.025 110.156C371.025 110.156 356.759 106.464 340.332 113.464C340.332 113.464 342.879 121.87 340.332 124.672L333.202 115.63C333.202 115.63 315.629 123.016 311.556 135.495L321.613 138.552L304.421 142.5C304.421 142.5 304.421 172.297 327.218 174.844L334.348 158.547L336.259 174.844C336.259 174.844 374.718 176.375 369.879 154.469C369.879 154.469 369.369 148.229 354.978 147.214C354.978 147.214 363.254 141.224 372.936 145.427C372.936 145.427 370.134 129.635 361.093 129.51C352.051 129.385 343.389 137.531 341.733 143.771C341.733 143.771 341.733 128.49 356.759 125.052C371.785 121.49 395.218 124.542 392.16 161.729C392.29 161.729 404.645 140.589 394.582 123.526Z" fill="#FF914D"/>
<path d="M301.238 165.292C301.238 165.292 290.415 175.865 275.134 174.719C275.134 174.719 293.983 168.349 296.91 156.505C299.837 144.667 294.619 138.297 303.66 128.365C312.702 118.432 322.504 109.26 343.645 106.589C343.645 106.589 330.275 97.2917 315.504 95.125C315.504 95.125 313.848 106.208 315.504 110.026C315.504 110.026 306.718 98.9479 306.207 95.125C306.207 95.125 289.27 98.8229 279.718 107.479C279.718 107.479 285.322 121.359 293.983 125.307C293.983 125.307 274.244 116.901 270.931 112.193C270.931 112.193 253.233 124.417 249.155 133.969C249.155 133.969 235.785 116.521 226.233 111.807C226.233 111.807 206.494 122.76 204.077 126.583C201.655 130.401 213.244 108.625 217.447 104.932C217.447 104.932 199.363 96.9115 190.322 96.526C190.322 96.526 182.171 104.932 180.645 109.01C180.645 109.01 178.223 101.115 179.754 95C179.754 95 157.087 98.9479 155.051 105.568C155.051 105.568 203.822 112.828 200.129 157.146C200.129 157.146 213.499 171.406 220.629 174.589C220.629 174.589 206.494 173.828 195.671 166.188C195.671 166.188 185.103 173.698 184.848 178.156C184.593 182.995 187.395 193.438 191.598 194.839C191.598 194.839 191.853 183.885 195.29 181.974C195.29 181.974 194.27 197.13 216.426 204.771C233.363 210.63 232.858 225.401 231.837 228.203C231.837 228.203 221.905 218.016 215.665 216.615C209.426 215.214 203.947 212.792 199.749 207.188C199.749 207.188 201.02 219.542 207.004 231.13C212.988 242.719 232.603 276.974 234.004 282.958C234.004 282.958 247.374 290.474 265.202 282.958C265.202 282.958 276.405 256.854 287.994 240.552C299.712 224.38 296.91 211.521 296.4 207.188C296.4 207.188 288.504 216.87 280.483 219.031C272.587 221.198 266.093 227.313 265.582 228.714C265.582 228.714 264.567 217.125 273.988 208.844C283.41 200.568 295.634 203.495 300.603 184.906C300.603 184.906 305.697 192.417 304.171 195.854C302.639 199.297 312.192 186.177 309.9 175.354C310.155 175.734 307.733 167.333 301.238 165.292Z" fill="#FF914D"/>
</g>
</svg>
