<svg width="970" height="350" viewBox="0 0 970 350" fill="none" xmlns="http://www.w3.org/2000/svg">
<path d="M475.591 77.6818C475.227 74.0151 473.667 71.1667 470.909 69.1364C468.152 67.1061 464.409 66.0909 459.682 66.0909C456.47 66.0909 453.758 66.5455 451.545 67.4545C449.333 68.3333 447.636 69.5606 446.455 71.1364C445.303 72.7121 444.727 74.5 444.727 76.5C444.667 78.1667 445.015 79.6212 445.773 80.8636C446.561 82.1061 447.636 83.1818 449 84.0909C450.364 84.9697 451.939 85.7424 453.727 86.4091C455.515 87.0455 457.424 87.5909 459.455 88.0455L467.818 90.0455C471.879 90.9545 475.606 92.1667 479 93.6818C482.394 95.197 485.333 97.0606 487.818 99.2727C490.303 101.485 492.227 104.091 493.591 107.091C494.985 110.091 495.697 113.53 495.727 117.409C495.697 123.106 494.242 128.045 491.364 132.227C488.515 136.379 484.394 139.606 479 141.909C473.636 144.182 467.167 145.318 459.591 145.318C452.076 145.318 445.53 144.167 439.955 141.864C434.409 139.561 430.076 136.152 426.955 131.636C423.864 127.091 422.242 121.47 422.091 114.773H441.136C441.348 117.894 442.242 120.5 443.818 122.591C445.424 124.652 447.561 126.212 450.227 127.273C452.924 128.303 455.97 128.818 459.364 128.818C462.697 128.818 465.591 128.333 468.045 127.364C470.53 126.394 472.455 125.045 473.818 123.318C475.182 121.591 475.864 119.606 475.864 117.364C475.864 115.273 475.242 113.515 474 112.091C472.788 110.667 471 109.455 468.636 108.455C466.303 107.455 463.439 106.545 460.045 105.727L449.909 103.182C442.061 101.273 435.864 98.2879 431.318 94.2273C426.773 90.1667 424.515 84.697 424.545 77.8182C424.515 72.1818 426.015 67.2576 429.045 63.0455C432.106 58.8333 436.303 55.5455 441.636 53.1818C446.97 50.8182 453.03 49.6364 459.818 49.6364C466.727 49.6364 472.758 50.8182 477.909 53.1818C483.091 55.5455 487.121 58.8333 490 63.0455C492.879 67.2576 494.364 72.1364 494.455 77.6818H475.591ZM594.511 97.4545C594.511 107.606 592.587 116.242 588.739 123.364C584.92 130.485 579.708 135.924 573.102 139.682C566.527 143.409 559.133 145.273 550.92 145.273C542.648 145.273 535.223 143.394 528.648 139.636C522.072 135.879 516.875 130.439 513.057 123.318C509.239 116.197 507.33 107.576 507.33 97.4545C507.33 87.303 509.239 78.6667 513.057 71.5455C516.875 64.4242 522.072 59 528.648 55.2727C535.223 51.5151 542.648 49.6364 550.92 49.6364C559.133 49.6364 566.527 51.5151 573.102 55.2727C579.708 59 584.92 64.4242 588.739 71.5455C592.587 78.6667 594.511 87.303 594.511 97.4545ZM574.557 97.4545C574.557 90.8788 573.572 85.3333 571.602 80.8182C569.663 76.303 566.92 72.8788 563.375 70.5455C559.83 68.2121 555.678 67.0455 550.92 67.0455C546.163 67.0455 542.011 68.2121 538.466 70.5455C534.92 72.8788 532.163 76.303 530.193 80.8182C528.254 85.3333 527.284 90.8788 527.284 97.4545C527.284 104.03 528.254 109.576 530.193 114.091C532.163 118.606 534.92 122.03 538.466 124.364C542.011 126.697 546.163 127.864 550.92 127.864C555.678 127.864 559.83 126.697 563.375 124.364C566.92 122.03 569.663 118.606 571.602 114.091C573.572 109.576 574.557 104.03 574.557 97.4545ZM609.091 144V50.9091H645.818C652.879 50.9091 658.894 52.2576 663.864 54.9545C668.833 57.6212 672.621 61.3333 675.227 66.0909C677.864 70.8182 679.182 76.2727 679.182 82.4545C679.182 88.6364 677.848 94.0909 675.182 98.8182C672.515 103.545 668.652 107.227 663.591 109.864C658.561 112.5 652.47 113.818 645.318 113.818H621.909V98.0455H642.136C645.924 98.0455 649.045 97.3939 651.5 96.0909C653.985 94.7576 655.833 92.9242 657.045 90.5909C658.288 88.2273 658.909 85.5151 658.909 82.4545C658.909 79.3636 658.288 76.6667 657.045 74.3636C655.833 72.0303 653.985 70.2273 651.5 68.9545C649.015 67.6515 645.864 67 642.045 67H628.773V144H609.091ZM697.261 144H676.17L708.307 50.9091H733.67L765.761 144H744.67L721.352 72.1818H720.625L697.261 144ZM695.943 107.409H745.761V122.773H695.943V107.409ZM839.591 144H806.591V50.9091H839.864C849.227 50.9091 857.288 52.7727 864.045 56.5C870.803 60.197 876 65.5151 879.636 72.4545C883.303 79.3939 885.136 87.697 885.136 97.3636C885.136 107.061 883.303 115.394 879.636 122.364C876 129.333 870.773 134.682 863.955 138.409C857.167 142.136 849.045 144 839.591 144ZM826.273 127.136H838.773C844.591 127.136 849.485 126.106 853.455 124.045C857.455 121.955 860.455 118.727 862.455 114.364C864.485 109.97 865.5 104.303 865.5 97.3636C865.5 90.4848 864.485 84.8636 862.455 80.5C860.455 76.1364 857.47 72.9242 853.5 70.8636C849.53 68.803 844.636 67.7727 838.818 67.7727H826.273V127.136ZM899.716 144V50.9091H962.443V67.1364H919.398V89.3182H959.216V105.545H919.398V127.773H962.625V144H899.716ZM507.227 238.5H487.318C486.955 235.924 486.212 233.636 485.091 231.636C483.97 229.606 482.53 227.879 480.773 226.455C479.015 225.03 476.985 223.939 474.682 223.182C472.409 222.424 469.939 222.045 467.273 222.045C462.455 222.045 458.258 223.242 454.682 225.636C451.106 228 448.333 231.455 446.364 236C444.394 240.515 443.409 246 443.409 252.455C443.409 259.091 444.394 264.667 446.364 269.182C448.364 273.697 451.152 277.106 454.727 279.409C458.303 281.712 462.439 282.864 467.136 282.864C469.773 282.864 472.212 282.515 474.455 281.818C476.727 281.121 478.742 280.106 480.5 278.773C482.258 277.409 483.712 275.758 484.864 273.818C486.045 271.879 486.864 269.667 487.318 267.182L507.227 267.273C506.712 271.545 505.424 275.667 503.364 279.636C501.333 283.576 498.591 287.106 495.136 290.227C491.712 293.318 487.621 295.773 482.864 297.591C478.136 299.379 472.788 300.273 466.818 300.273C458.515 300.273 451.091 298.394 444.545 294.636C438.03 290.879 432.879 285.439 429.091 278.318C425.333 271.197 423.455 262.576 423.455 252.455C423.455 242.303 425.364 233.667 429.182 226.545C433 219.424 438.182 214 444.727 210.273C451.273 206.515 458.636 204.636 466.818 204.636C472.212 204.636 477.212 205.394 481.818 206.909C486.455 208.424 490.561 210.636 494.136 213.545C497.712 216.424 500.621 219.955 502.864 224.136C505.136 228.318 506.591 233.106 507.227 238.5ZM535.636 299H514.545L546.682 205.909H572.045L604.136 299H583.045L559.727 227.182H559L535.636 299ZM534.318 262.409H584.136V277.773H534.318V262.409ZM615.341 299V205.909H652.614C659.462 205.909 665.174 206.924 669.75 208.955C674.326 210.985 677.765 213.803 680.068 217.409C682.371 220.985 683.523 225.106 683.523 229.773C683.523 233.409 682.795 236.606 681.341 239.364C679.886 242.091 677.886 244.333 675.341 246.091C672.826 247.818 669.947 249.045 666.705 249.773V250.682C670.25 250.833 673.568 251.833 676.659 253.682C679.78 255.53 682.311 258.121 684.25 261.455C686.189 264.758 687.159 268.697 687.159 273.273C687.159 278.212 685.932 282.621 683.477 286.5C681.053 290.348 677.462 293.394 672.705 295.636C667.947 297.879 662.083 299 655.114 299H615.341ZM635.023 282.909H651.068C656.553 282.909 660.553 281.864 663.068 279.773C665.583 277.652 666.841 274.833 666.841 271.318C666.841 268.742 666.22 266.47 664.977 264.5C663.735 262.53 661.962 260.985 659.659 259.864C657.386 258.742 654.674 258.182 651.523 258.182H635.023V282.909ZM635.023 244.864H649.614C652.311 244.864 654.705 244.394 656.795 243.455C658.917 242.485 660.583 241.121 661.795 239.364C663.038 237.606 663.659 235.5 663.659 233.045C663.659 229.682 662.462 226.97 660.068 224.909C657.705 222.848 654.341 221.818 649.977 221.818H635.023V244.864ZM699.966 299V205.909H736.693C743.723 205.909 749.723 207.167 754.693 209.682C759.693 212.167 763.496 215.697 766.102 220.273C768.739 224.818 770.057 230.167 770.057 236.318C770.057 242.5 768.723 247.818 766.057 252.273C763.39 256.697 759.527 260.091 754.466 262.455C749.436 264.818 743.345 266 736.193 266H711.602V250.182H733.011C736.769 250.182 739.89 249.667 742.375 248.636C744.86 247.606 746.708 246.061 747.92 244C749.163 241.939 749.784 239.379 749.784 236.318C749.784 233.227 749.163 230.621 747.92 228.5C746.708 226.379 744.845 224.773 742.33 223.682C739.845 222.561 736.708 222 732.92 222H719.648V299H699.966ZM750.239 256.636L773.375 299H751.648L729.011 256.636H750.239ZM800.011 299H778.92L811.057 205.909H836.42L868.511 299H847.42L824.102 227.182H823.375L800.011 299ZM798.693 262.409H848.511V277.773H798.693V262.409Z" fill="#FF914D"/>
<mask id="mask0_11_15" style="mask-type:luminance" maskUnits="userSpaceOnUse" x="0" y="0" width="350" height="350">
<path d="M0 0H350V350H0V0Z" fill="white"/>
</mask>
<g mask="url(#mask0_11_15)">
<mask id="mask1_11_15" style="mask-type:luminance" maskUnits="userSpaceOnUse" x="0" y="0" width="350" height="350">
<path d="M175 0C78.3525 0 0 78.3483 0 175.003C0 271.652 78.3525 350 175 350C271.648 350 350 271.652 350 175.003C350 78.3483 271.648 0 175 0Z" fill="white"/>
</mask>
<g mask="url(#mask1_11_15)">
<path d="M0 0H350V350H0V0Z" fill="#FFDE59"/>
</g>
<path d="M100.53 138.422L110.593 135.37C106.52 122.891 88.9415 115.5 88.9415 115.5L81.8113 124.542C79.2644 121.615 81.8113 113.338 81.8113 113.338C65.3842 106.463 51.2488 110.026 51.2488 110.026L48.9571 119.448L44.3738 112.193C35.8425 113.594 27.9467 123.396 27.9467 123.396C17.8842 140.463 30.2384 161.599 30.2384 161.599C27.3113 124.417 50.4884 121.359 65.5144 124.927C80.4102 128.49 80.4102 143.646 80.4102 143.646C78.754 137.406 70.0977 129.255 61.1811 129.385C52.2696 129.51 49.4675 145.302 49.4675 145.302C59.0196 141.224 67.2957 147.083 67.2957 147.083C53.0352 148.229 52.5248 154.344 52.5248 154.344C47.8113 176.245 86.0144 174.719 86.0144 174.719L87.9259 158.417L95.0561 174.719C117.723 172.172 117.723 142.37 117.723 142.37L100.53 138.422Z" fill="#FF914D"/>
<path d="M320.582 123.526C320.582 123.526 312.686 113.719 304.155 112.318L299.316 119.578L297.025 110.156C297.025 110.156 282.759 106.463 266.332 113.463C266.332 113.463 268.879 121.87 266.332 124.672L259.202 115.63C259.202 115.63 241.629 123.016 237.556 135.495L247.613 138.552L230.421 142.5C230.421 142.5 230.421 172.297 253.218 174.844L260.348 158.547L262.259 174.844C262.259 174.844 300.718 176.375 295.879 154.469C295.879 154.469 295.369 148.229 280.978 147.213C280.978 147.213 289.254 141.224 298.936 145.427C298.936 145.427 296.134 129.635 287.093 129.51C278.051 129.385 269.389 137.531 267.733 143.771C267.733 143.771 267.733 128.49 282.759 125.052C297.785 121.49 321.218 124.542 318.16 161.729C318.29 161.729 330.645 140.588 320.582 123.526Z" fill="#FF914D"/>
<path d="M227.238 165.292C227.238 165.292 216.415 175.865 201.134 174.719C201.134 174.719 219.983 168.349 222.91 156.505C225.837 144.667 220.619 138.297 229.66 128.365C238.702 118.432 248.504 109.26 269.645 106.589C269.645 106.589 256.275 97.2917 241.504 95.125C241.504 95.125 239.848 106.208 241.504 110.026C241.504 110.026 232.718 98.9479 232.207 95.125C232.207 95.125 215.27 98.8229 205.718 107.479C205.718 107.479 211.322 121.359 219.983 125.307C219.983 125.307 200.244 116.901 196.931 112.193C196.931 112.193 179.233 124.417 175.155 133.969C175.155 133.969 161.785 116.521 152.233 111.807C152.233 111.807 132.494 122.76 130.077 126.583C127.655 130.401 139.244 108.625 143.447 104.932C143.447 104.932 125.363 96.9115 116.322 96.526C116.322 96.526 108.171 104.932 106.645 109.01C106.645 109.01 104.223 101.115 105.754 95C105.754 95 83.0874 98.9479 81.0509 105.568C81.0509 105.568 129.822 112.828 126.129 157.146C126.129 157.146 139.499 171.406 146.629 174.589C146.629 174.589 132.494 173.828 121.671 166.188C121.671 166.188 111.103 173.698 110.848 178.156C110.593 182.995 113.395 193.438 117.598 194.839C117.598 194.839 117.853 183.885 121.29 181.974C121.29 181.974 120.27 197.13 142.426 204.771C159.363 210.63 158.858 225.401 157.837 228.203C157.837 228.203 147.905 218.016 141.665 216.615C135.426 215.214 129.947 212.792 125.749 207.188C125.749 207.188 127.02 219.542 133.004 231.13C138.988 242.719 158.603 276.974 160.004 282.958C160.004 282.958 173.374 290.474 191.202 282.958C191.202 282.958 202.405 256.854 213.994 240.552C225.712 224.38 222.91 211.521 222.4 207.188C222.4 207.188 214.504 216.87 206.483 219.031C198.587 221.198 192.093 227.313 191.582 228.714C191.582 228.714 190.567 217.125 199.988 208.844C209.41 200.568 221.634 203.495 226.603 184.906C226.603 184.906 231.697 192.417 230.171 195.854C228.639 199.297 238.192 186.177 235.9 175.354C236.155 175.734 233.733 167.333 227.238 165.292Z" fill="#FF914D"/>
</g>
</svg>
